HIERARCHY
ROOT Hips
{
	OFFSET 0.000000 0.000000 0.000000
	CHANNELS 6 Xposition Yposition Zposition Zrotation Yrotation Xrotation 
	JOINT LHipJoint
	{
		OFFSET 0.000000 0.000000 0.000000
		CHANNELS 3 Zrotation Yrotation Xrotation
		JOINT LeftUpLeg
		{
			OFFSET 1.363060 -1.794630 0.839290
			CHANNELS 3 Zrotation Yrotation Xrotation
			JOINT LeftLeg
			{
				OFFSET 2.448110 -6.726130 0.000000
				CHANNELS 3 Zrotation Yrotation Xrotation
				JOINT LeftFoot
				{
					OFFSET 2.562200 -7.039590 0.000000
					CHANNELS 3 Zrotation Yrotation Xrotation
					JOINT LeftToeBase
					{
						OFFSET 0.157640 -0.433110 2.322550
						CHANNELS 3 Zrotation Yrotation Xrotation
						End Site
						{
							OFFSET 0.000000 0.000000 0.000000
						}
					}
				}
			}
		}
	}
	JOINT RHipJoint
	{
		OFFSET 0.000000 0.000000 0.000000
		CHANNELS 3 Zrotation Yrotation Xrotation
		JOINT RightUpLeg
		{
			OFFSET -1.305520 -1.794630 0.839290
			CHANNELS 3 Zrotation Yrotation Xrotation
			JOINT RightLeg
			{
				OFFSET -2.542530 -6.985550 0.000000
				CHANNELS 3 Zrotation Yrotation Xrotation
				JOINT RightFoot
				{
					OFFSET -2.568260 -7.056230 0.000000
					CHANNELS 3 Zrotation Yrotation Xrotation
					JOINT RightToeBase
					{
						OFFSET -0.164730 -0.452590 2.363150
						CHANNELS 3 Zrotation Yrotation Xrotation
						End Site
						{
							OFFSET 0.000000 0.000000 0.000000
						}
					}
				}
			}
		}
	}
	JOINT LowerBack
	{
		OFFSET 0.000000 0.000000 0.000000
		CHANNELS 3 Zrotation Yrotation Xrotation
		JOINT Spine
		{
			OFFSET 0.028270 2.035590 -0.193380
			CHANNELS 3 Zrotation Yrotation Xrotation
			JOINT Spine1
			{
				OFFSET 0.056720 2.048850 -0.042750
				CHANNELS 3 Zrotation Yrotation Xrotation
				JOINT Neck
				{
					OFFSET 0.000000 0.000000 0.000000
					CHANNELS 3 Zrotation Yrotation Xrotation
					JOINT Neck1
					{
						OFFSET -0.054170 1.746240 0.172020
						CHANNELS 3 Zrotation Yrotation Xrotation
						JOINT Head
						{
							OFFSET 0.104070 1.761360 -0.123970
							CHANNELS 3 Zrotation Yrotation Xrotation
							End Site
							{
								OFFSET 0.000000 0.000000 0.000000
							}
						}
					}
				}
				JOINT LeftShoulder
				{
					OFFSET 0.000000 0.000000 0.000000
					CHANNELS 3 Zrotation Yrotation Xrotation
					JOINT LeftArm
					{
						OFFSET 3.362410 1.200890 -0.311210
						CHANNELS 3 Zrotation Yrotation Xrotation
						JOINT LeftForeArm
						{
							OFFSET 4.983000 -0.000000 -0.000000
							CHANNELS 3 Zrotation Yrotation Xrotation
							JOINT LeftHand
							{
								OFFSET 3.483560 -0.000000 -0.000000
								CHANNELS 3 Zrotation Yrotation Xrotation
								JOINT LeftFingerBase
								{
									OFFSET 0.000000 0.000000 0.000000
									CHANNELS 3 Zrotation Yrotation Xrotation
									JOINT LeftHandIndex1
									{
										OFFSET 0.715260 -0.000000 -0.000000
										CHANNELS 3 Zrotation Yrotation Xrotation
										End Site
										{
											OFFSET 0.000000 0.000000 0.000000
										}
									}
								}
								JOINT LThumb
								{
									OFFSET 0.000000 0.000000 0.000000
									CHANNELS 3 Zrotation Yrotation Xrotation
									End Site
									{
										OFFSET 0.000000 0.000000 0.000000
									}
								}
							}
						}
					}
				}
				JOINT RightShoulder
				{
					OFFSET 0.000000 0.000000 0.000000
					CHANNELS 3 Zrotation Yrotation Xrotation
					JOINT RightArm
					{
						OFFSET -3.136600 1.374050 -0.404650
						CHANNELS 3 Zrotation Yrotation Xrotation
						JOINT RightForeArm
						{
							OFFSET -5.241900 -0.000000 -0.000000
							CHANNELS 3 Zrotation Yrotation Xrotation
							JOINT RightHand
							{
								OFFSET -3.444170 -0.000000 -0.000000
								CHANNELS 3 Zrotation Yrotation Xrotation
								JOINT RightFingerBase
								{
									OFFSET 0.000000 0.000000 0.000000
									CHANNELS 3 Zrotation Yrotation Xrotation
									JOINT RightHandIndex1
									{
										OFFSET -0.622530 -0.000000 -0.000000
										CHANNELS 3 Zrotation Yrotation Xrotation
										End Site
										{
											OFFSET 0.000000 0.000000 0.000000
										}
									}
								}
								JOINT RThumb
								{
									OFFSET 0.000000 0.000000 0.000000
									CHANNELS 3 Zrotation Yrotation Xrotation
									End Site
									{
										OFFSET 0.000000 0.000000 0.000000
									}
								}
							}
						}
					}
				}
			}
		}
	}
}
MOTION
Frames: 7
Frame Time: 0.016667
-1.689226 16.850677 24.025692 1.195664 2.991730 8.447926 -11.393432 7.120172 -8.298340 -13.512395 -6.472212 -17.698161 -7.018973 0.466875 -1.028637 -0.001653 7.048625 16.161080 0.000000 0.000000 0.000000 11.283077 -10.880496 7.585388 3.775103 7.353817 -11.220653 5.446465 -17.319375 39.969454 8.451981 -7.091879 -7.979080 0.000000 0.000000 0.000000 1.245594 3.207484 6.655556 -3.846766 1.668746 -9.639174 1.385867 1.917522 -6.870476 2.436944 -0.896990 -9.029017 -0.394458 -0.355197 7.414800 0.000000 0.000000 0.000000 -5.065343 7.070396 12.373407 -60.026630 -1.645186 0.099419 -33.012868 -9.902735 -0.032513 0.031921 -4.697068 -0.016373 0.037117 -4.697762 0.000000 0.000000 0.000000 0.000000 0.000000 0.000000 0.000000 4.248920 -7.536004 10.052399 62.856687 7.950966 3.301542 9.359248 67.015990 0.003573 -0.899311 -0.163415 0.001907 -0.897153 -0.163238 0.000000 0.000000 0.000000 0.000000 0.000000 0.000000 0.000000 
-1.696047 16.873797 24.220426 1.613850 2.900111 8.548922 -10.994940 7.530551 -8.239865 -14.203179 -6.461302 -17.388439 -7.477470 0.786127 -0.255776 -0.068298 6.462948 14.499055 0.000000 0.000000 0.000000 11.492962 -10.755276 7.821169 3.229480 7.255205 -11.363254 4.903015 -17.350051 40.300487 8.843238 -8.285585 -5.831626 0.000000 0.000000 0.000000 0.992705 3.043565 6.462252 -4.112544 1.419768 -9.653990 1.426110 1.664128 -6.749233 2.347797 -0.862176 -8.907744 -0.255399 -0.349469 7.411436 0.000000 0.000000 0.000000 -5.003072 6.916145 12.284160 -60.121898 -1.775729 0.006930 -33.137852 -9.312902 -0.043180 0.115109 -4.810936 -0.021716 0.120836 -4.811606 0.000000 0.000000 0.000000 0.000000 0.000000 0.000000 0.000000 4.263789 -7.640346 10.297418 63.299723 7.806459 3.182780 10.436691 65.976595 0.011102 -0.857748 -0.063380 0.005666 -0.855531 -0.063187 0.000000 0.000000 0.000000 0.000000 0.000000 0.000000 0.000000 
-1.699523 16.897847 24.412240 2.000430 2.876561 8.659464 -10.678480 7.870436 -8.152883 -14.841690 -6.478015 -17.057875 -7.771010 1.015237 0.411450 -0.131113 5.884301 12.990723 0.000000 0.000000 0.000000 11.718039 -10.672042 8.070348 2.712009 7.172682 -11.522883 4.375520 -17.371452 40.562172 9.278352 -9.557259 -3.698908 0.000000 0.000000 0.000000 0.788673 2.907103 6.218879 -4.372567 1.196286 -9.688182 1.436604 1.431467 -6.397260 2.280093 -0.825564 -8.910695 -0.120902 -0.341855 7.386637 0.000000 0.000000 0.000000 -4.970215 6.607463 12.133473 -60.217256 -1.989704 -0.139514 -33.210992 -8.654909 -0.054424 0.202952 -4.901529 -0.027345 0.209171 -4.902164 0.000000 0.000000 0.000000 0.000000 0.000000 0.000000 0.000000 4.271167 -7.492744 10.727578 63.686624 7.657435 2.839546 11.433582 64.777177 0.013802 -0.842941 0.125213 0.007000 -0.840991 0.125379 0.000000 0.000000 0.000000 0.000000 0.000000 0.000000 0.000000 
-1.703592 16.920576 24.599836 2.371750 2.838755 8.772474 -10.353761 8.209988 -8.079035 -15.525810 -6.513654 -16.715741 -7.928993 1.213729 1.072573 -0.188914 5.310414 11.578009 0.000000 0.000000 0.000000 11.984726 -10.559273 8.325981 2.106756 7.062434 -11.716539 3.954915 -17.428622 40.793267 9.695138 -10.857377 -1.559919 0.000000 0.000000 0.000000 0.516445 2.748469 5.982458 -4.515791 0.980424 -9.687626 1.429072 1.206699 -6.056047 2.272296 -0.787700 -8.919913 -0.010556 -0.332090 7.335690 0.000000 0.000000 0.000000 -4.906912 6.356083 11.953914 -60.343443 -2.223135 -0.280330 -33.371095 -7.884716 -0.065770 0.278781 -4.997305 -0.033025 0.285502 -4.997919 0.000000 0.000000 0.000000 0.000000 0.000000 0.000000 0.000000 4.170451 -7.382970 11.178954 64.091733 7.453679 2.604643 12.615759 63.591191 0.015776 -0.833521 0.365381 0.007968 -0.831915 0.365514 0.000000 0.000000 0.000000 0.000000 0.000000 0.000000 0.000000 
-1.707787 16.941476 24.783145 2.659502 2.760210 8.849604 -9.953416 8.601155 -7.996081 -16.264575 -6.568912 -16.355383 -7.950084 1.379202 1.729880 -0.238667 4.732734 10.243211 0.000000 0.000000 0.000000 12.101238 -10.488938 8.503177 1.753322 6.964402 -11.743761 3.582554 -17.408531 40.957736 10.112760 -12.206961 0.608181 0.000000 0.000000 0.000000 0.237626 2.576307 5.788543 -4.534459 0.781821 -9.650815 1.398507 1.000842 -5.726866 2.325368 -0.747641 -8.937799 0.078640 -0.320153 7.259462 0.000000 0.000000 0.000000 -4.810992 6.172515 11.741866 -60.502983 -2.476420 -0.416209 -33.617760 -7.003372 -0.077296 0.342499 -5.097417 -0.038797 0.349732 -5.098027 0.000000 0.000000 0.000000 0.000000 0.000000 0.000000 0.000000 3.957145 -7.306912 11.648270 64.508530 7.200614 2.478915 14.022969 62.368565 0.016953 -0.826148 0.670122 0.008535 -0.824989 0.670218 0.000000 0.000000 0.000000 0.000000 0.000000 0.000000 0.000000 
-1.712387 16.962759 24.960303 2.912124 2.651945 8.926943 -9.667179 8.921479 -7.921515 -16.824524 -6.647142 -16.130618 -7.894617 1.617970 2.569863 -0.279853 4.136519 8.852668 0.000000 0.000000 0.000000 12.337512 -10.318525 8.649547 1.290454 6.812588 -11.800972 3.217389 -17.439324 41.152959 10.506605 -13.614647 2.819763 0.000000 0.000000 0.000000 -0.084216 2.378856 5.619753 -4.391927 0.594731 -9.520123 1.289638 0.812882 -5.469630 2.401932 -0.695773 -8.989025 0.192224 -0.305749 7.188463 0.000000 0.000000 0.000000 -4.701386 6.052581 11.500648 -60.806939 -2.772657 -0.549410 -33.696470 -6.024599 -0.086062 0.364038 -5.217939 -0.043187 0.371706 -5.218570 0.000000 0.000000 0.000000 0.000000 0.000000 0.000000 0.000000 3.628429 -7.267004 12.124385 64.963061 6.919485 2.435021 15.656840 61.034946 0.017369 -0.815366 1.063167 0.008718 -0.814798 1.063230 0.000000 0.000000 0.000000 0.000000 0.000000 0.000000 0.000000 
-1.717930 16.984173 25.131336 3.125338 2.511159 9.006128 -9.502731 9.169179 -7.856207 -17.196731 -6.756658 -16.058462 -7.747833 1.936085 3.613006 -0.312532 3.514670 7.385059 0.000000 0.000000 0.000000 12.693862 -10.044417 8.761359 0.724395 6.606046 -11.882149 2.855143 -17.524555 41.381254 10.866214 -15.075329 5.076681 0.000000 0.000000 0.000000 -0.446508 2.143271 5.476845 -4.080818 0.414068 -9.294877 1.110662 0.632430 -5.261657 2.498565 -0.647478 -9.091266 0.325393 -0.290115 7.116218 0.000000 0.000000 0.000000 -4.548242 6.021981 11.217087 -61.317444 -3.112811 -0.675731 -33.168848 -5.061061 -0.088482 0.337164 -5.368579 -0.044402 0.345053 -5.369229 -0.000000 0.000000 0.000000 0.000000 0.000000 0.000000 0.000000 3.165179 -7.236875 12.593474 65.446805 6.634414 2.460315 17.566285 59.499103 0.016586 -0.794225 1.567157 0.008295 -0.794475 1.567200 0.000000 0.000000 0.000000 0.000000 0.000000 0.000000 0.000000 
